<?xml version="1.0" encoding="utf-8"?>
<svg xmlns="http://www.w3.org/2000/svg" viewBox="0 0 500 500" xmlns:bx="https://boxy-svg.com">
  <defs>
    <bx:export>
      <bx:file format="svg"/>
    </bx:export>
  </defs>
  <g transform="matrix(0.932497, 0.361176, -0.361176, 0.932497, 102.540428, -59.919514)" style="">
    <g>
      <g>
        <path style="fill: rgb(134, 168, 56); stroke: rgb(68, 68, 68); stroke-width: 5px;" d="M 72.616 202.731 C 69.703 192.824 178.424 178.572 193.092 190.437 L 178.657 260.947 C 160.487 266.022 66.333 209.822 72.936 201.883"/>
      </g>
      <g transform="matrix(-1, 0, 0, -1, 480.730133, 469.007172)" style="">
        <path style="transform-box: fill-box; transform-origin: 50% 50%; fill: rgb(134, 168, 56); stroke: rgb(68, 68, 68); stroke-width: 5px;" d="M 64.669 225.072 C 61.756 234.979 170.477 249.231 185.145 237.366 L 170.433 166.913 C 152.262 161.838 58.109 218.038 64.712 225.978" transform="matrix(0.918, 0.396581, -0.396581, 0.918, 0.000002, -0.000001)"/>
      </g>
      <g transform="matrix(-0.50486, 0.863201, -0.863201, -0.50486, 177.708115, -79.07328)" style="transform-origin: 129.658px 225.508px;">
        <path style="transform-box: fill-box; transform-origin: 50% 50%; fill: rgb(134, 168, 56); stroke: rgb(68, 68, 68); stroke-width: 5px;" d="M 64.669 225.072 C 61.756 234.979 170.477 249.231 185.145 237.366 L 170.433 166.913 C 152.262 161.838 58.109 218.038 64.712 225.978" transform="matrix(0.918, 0.396581, -0.396581, 0.918, 0.000002, -0.000001)"/>
      </g>
      <g transform="matrix(0.57458, 0.818448, -0.818448, 0.57458, 64.675262, -95.193832)" style="transform-origin: 129.658px 225.508px;">
        <path style="fill: rgb(134, 168, 56); stroke: rgb(68, 68, 68); stroke-width: 5px;" d="M 72.616 202.731 C 69.703 192.824 178.424 178.572 193.092 190.437 L 178.657 260.947 C 160.487 266.022 66.333 209.822 72.936 201.883"/>
      </g>
      <g transform="matrix(-0.57458, -0.818448, 0.818448, -0.57458, 168.087448, 115.658463)" style="transform-origin: 129.658px 225.508px;">
        <path style="fill: rgb(134, 168, 56); stroke: rgb(68, 68, 68); stroke-width: 5px;" d="M 72.616 202.731 C 69.703 192.824 178.424 178.572 193.092 190.437 L 178.657 260.947 C 160.487 266.022 66.333 209.822 72.936 201.883"/>
      </g>
      <g transform="matrix(0.50486, -0.863201, 0.863201, 0.50486, 55.68288, 99.063545)" style="transform-origin: 129.658px 225.508px;">
        <path style="transform-box: fill-box; transform-origin: 50% 50%; fill: rgb(134, 168, 56); stroke: rgb(68, 68, 68); stroke-width: 5px;" d="M 64.669 225.072 C 61.756 234.979 170.477 249.231 185.145 237.366 L 170.433 166.913 C 152.262 161.838 58.109 218.038 64.712 225.978" transform="matrix(0.918, 0.396581, -0.396581, 0.918, 0.000002, -0.000001)"/>
      </g>
      <path d="M 189.045 191.724 C 191.606 191.449 191.529 187.722 194.913 186.056 C 194.525 185.18 197.371 185.816 197.148 184.948 C 196.681 183.128 196.533 181.276 196.821 179.382 C 197.129 177.353 198.047 174.919 199.112 173.162 C 200.105 171.523 201.458 170.141 202.877 169.069 C 204.251 168.032 205.695 167.273 207.461 166.777 C 209.451 166.219 212.022 165.971 214.336 166.123 C 216.714 166.278 219.763 168.399 221.539 167.76 C 223.133 167.186 223.166 164.566 224.813 163.176 C 226.882 161.43 230.862 159.3 233.653 158.592 C 236.06 157.982 238.227 158.232 240.528 158.592 C 242.919 158.967 249.126 159.137 252.094 159.715 C 255.942 160.464 264.863 159.976 266.533 161.434 C 267.529 162.305 276.356 164.509 276.756 164.949 C 276.986 165.202 276.703 169.031 277.041 169.355 C 278.038 170.31 278.965 176.088 280.308 177.582 C 281.004 178.357 281.151 178.852 281.453 179.219 C 281.651 179.459 281.624 179.426 281.945 179.71 C 282.751 180.423 284.816 182.568 287.347 184.13 C 290.945 186.351 299.561 188.773 302.571 191.332 C 303.874 192.44 304.56 193.592 305.072 194.76 C 306.484 195.722 307.831 196.913 308.891 198.271 C 311.041 201.027 314.635 198.338 315.392 201.517 C 315.445 201.739 316.358 212.69 317.859 214.245 C 319.46 215.905 322.244 217.811 322.953 219.647 C 323.614 221.363 323.962 223.05 323.935 224.886 C 323.906 226.856 323.557 229.131 322.625 231.106 C 321.62 233.239 319.529 235.745 317.878 237.163 C 316.507 238.341 315.328 238.957 313.622 239.455 C 313.561 239.473 313.499 239.49 313.437 239.508 C 312.316 242.613 311.189 245.843 310.528 248.691 C 309.561 252.856 309.388 257.762 308.899 262.022 C 308.909 262.055 308.919 262.089 308.929 262.122 C 309.517 264.082 310.085 266.287 309.584 268.67 C 308.971 271.588 306.127 277.841 305.07 279.155 C 304.635 279.695 299.895 285.22 297.571 286.082 C 297.238 286.474 281.321 294.325 275.308 296.85 C 270.641 298.809 267.854 298.279 262.867 299.796 C 256.264 301.805 244.53 308.698 239.578 309.852 C 236.958 310.463 229.397 310.554 225.111 308.313 C 221.853 306.609 210.903 299.021 209.01 297.341 C 207.511 296.01 206.582 294.556 205.572 293.576 C 204.779 292.806 204.19 292.505 203.444 291.775 C 202.567 290.917 201.624 289.559 200.661 288.665 C 199.764 287.831 198.819 287.622 197.878 286.537 C 196.863 285.366 195.477 283.427 194.562 281.504 C 193.228 281.557 191.951 281.482 190.857 281.303 C 187.654 280.78 184.409 278.207 182.502 276.406 C 180.988 274.975 178.394 268.035 177.794 266.074 C 177.052 263.649 175.935 259.487 174.435 257.39 C 172.482 254.661 170.199 249.78 169.249 245.866 C 168.333 242.092 168.421 238.335 168.673 234.342 C 168.94 230.096 169.702 224.939 170.978 221.089 C 172.113 217.662 174.495 213.204 175.587 212.157 C 176.052 211.711 176.54 212.363 176.74 211.869 C 177.218 210.688 174.263 204.754 175.011 201.497 C 175.789 198.111 179.377 193.933 181.638 191.989 C 183.337 190.529 186.375 192.01 189.045 191.724 Z" style="fill: rgb(134, 168, 56); stroke-width: 5px; stroke: rgba(68, 68, 68, 0);"/>
    </g>
  </g>
  <g transform="matrix(0.801596, 0.310476, -0.310476, 0.801596, 121.577606, -19.282715)" style="">
    <g transform="matrix(0.722859, 0, 0, 0.731604, 72.13961, 65.685005)" style="">
      <path style="stroke: rgba(0, 0, 0, 0); fill: rgb(168, 198, 53);" d="M 72.616 202.731 C 69.703 192.824 178.424 178.572 193.092 190.437 L 178.657 260.947 C 160.487 266.022 66.333 209.822 72.936 201.883"/>
    </g>
    <g transform="matrix(-0.722859, 0, 0, -0.731604, 419.63974, 408.812439)" style="">
      <path style="transform-box: fill-box; transform-origin: 50% 50%; stroke: rgba(0, 0, 0, 0); fill: rgb(168, 198, 53);" d="M 64.669 225.072 C 61.756 234.979 170.477 249.231 185.145 237.366 L 170.433 166.913 C 152.262 161.838 58.109 218.038 64.712 225.978" transform="matrix(0.918, 0.396581, -0.396581, 0.918, 0.000002, -0.000001)"/>
    </g>
    <g transform="matrix(-0.364943, 0.631521, -0.623973, -0.369358, 164.663986, -52.690735)" style="transform-origin: 129.658px 225.508px;">
      <path style="transform-box: fill-box; transform-origin: 50% 50%; stroke: rgba(0, 0, 0, 0); fill: rgb(168, 198, 53);" d="M 64.669 225.072 C 61.756 234.979 170.477 249.231 185.145 237.366 L 170.433 166.913 C 152.262 161.838 58.109 218.038 64.712 225.978" transform="matrix(0.918, 0.396581, -0.396581, 0.918, 0.000002, -0.000001)"/>
    </g>
    <g transform="matrix(0.41534, 0.59878, -0.591623, 0.420365, 82.957161, -64.484627)" style="transform-origin: 129.658px 225.508px;">
      <path style="stroke: rgba(0, 0, 0, 0); fill: rgb(168, 198, 53);" d="M 72.616 202.731 C 69.703 192.824 178.424 178.572 193.092 190.437 L 178.657 260.947 C 160.487 266.022 66.333 209.822 72.936 201.883"/>
    </g>
    <g transform="matrix(-0.41534, -0.59878, 0.591623, -0.420365, 157.709595, 89.775635)" style="transform-origin: 129.658px 225.508px;">
      <path style="stroke: rgba(0, 0, 0, 0); fill: rgb(168, 198, 53);" d="M 72.616 202.731 C 69.703 192.824 178.424 178.572 193.092 190.437 L 178.657 260.947 C 160.487 266.022 66.333 209.822 72.936 201.883"/>
    </g>
    <g transform="matrix(0.364943, -0.631521, 0.623973, 0.369358, 76.456932, 77.634735)" style="transform-origin: 129.658px 225.508px;">
      <path style="transform-box: fill-box; transform-origin: 50% 50%; stroke: rgba(0, 0, 0, 0); fill: rgb(168, 198, 53);" d="M 64.669 225.072 C 61.756 234.979 170.477 249.231 185.145 237.366 L 170.433 166.913 C 152.262 161.838 58.109 218.038 64.712 225.978" transform="matrix(0.918, 0.396581, -0.396581, 0.918, 0.000002, -0.000001)"/>
    </g>
    <path stroke-width="0" d="M 208.793 205.951 C 210.644 205.75 212.868 204.145 215.314 202.926 C 215.033 202.285 214.811 201.629 214.65 200.994 C 214.313 199.662 214.206 198.307 214.414 196.921 C 214.636 195.437 215.3 193.656 216.07 192.371 C 216.788 191.172 217.766 190.161 218.791 189.376 C 219.785 188.618 220.828 188.062 222.105 187.7 C 223.543 187.291 225.402 187.11 227.075 187.221 C 228.794 187.335 230.998 188.886 232.281 188.419 C 233.434 187.999 233.457 186.082 234.648 185.065 C 236.144 183.788 239.021 182.229 241.038 181.711 C 242.778 181.265 244.344 181.448 246.008 181.711 C 247.736 181.986 249.069 182.965 251.215 183.388 C 253.996 183.936 258.773 183.335 261.628 184.347 C 264.103 185.223 266.456 187.471 267.663 188.538 C 268.383 189.175 268.675 189.773 268.964 190.095 C 269.131 190.28 269.075 190.217 269.319 190.454 C 270.04 191.153 273.792 194.512 274.763 195.605 C 275.266 196.172 275.372 196.534 275.591 196.802 C 275.734 196.978 275.714 196.954 275.946 197.161 C 276.529 197.683 278.022 199.252 279.851 200.395 C 282.452 202.02 288.68 203.792 290.856 205.664 C 291.798 206.475 292.294 207.318 292.664 208.172 C 293.685 208.876 294.658 209.747 295.425 210.741 C 296.979 212.757 298.19 216.32 298.737 218.646 C 298.776 218.808 298.81 218.973 298.839 219.138 C 300.461 219.993 302.138 221.29 303.223 222.427 C 304.38 223.642 305.077 225.036 305.589 226.379 C 306.067 227.635 306.319 228.869 306.299 230.212 C 306.278 231.654 306.026 233.318 305.352 234.763 C 304.626 236.323 303.114 238.157 301.921 239.194 C 300.93 240.056 300.078 240.507 298.844 240.871 C 298.8 240.884 298.756 240.897 298.711 240.91 C 297.9 243.182 297.086 245.545 296.608 247.628 C 295.909 250.675 295.784 254.265 295.43 257.381 C 295.438 257.405 295.445 257.43 295.452 257.454 C 295.877 258.888 296.288 260.502 295.926 262.245 C 295.482 264.38 293.022 268.35 292.258 269.311 C 291.943 269.707 291.945 269.526 291.547 269.79 C 290.73 270.334 288.677 272.209 286.997 272.84 C 286.756 273.127 286.457 273.432 286.058 273.76 C 283.323 276.011 275.495 281.014 271.149 282.862 C 267.775 284.295 265.761 283.907 262.156 285.017 C 257.383 286.487 248.223 290.64 244.643 291.484 C 242.749 291.931 242.586 292.024 240.856 291.724 C 238.015 291.231 231.647 288.812 228.549 287.173 C 226.194 285.926 224.593 284.45 223.225 283.221 C 222.141 282.247 221.47 281.183 220.739 280.466 C 220.166 279.903 219.741 279.683 219.201 279.149 C 218.567 278.521 217.886 277.527 217.19 276.873 C 216.541 276.263 215.858 276.11 215.178 275.316 C 214.444 274.46 213.442 273.041 212.781 271.634 C 211.817 271.673 210.893 271.618 210.103 271.487 C 207.787 271.105 205.442 269.222 204.063 267.905 C 202.969 266.858 202.414 265.967 201.981 264.532 C 201.444 262.758 201.477 258.806 201.564 257.787 C 201.598 257.383 201.892 257.449 201.772 257.154 C 201.509 256.506 199.316 255.527 198.232 253.992 C 196.82 251.996 195.17 248.425 194.483 245.561 C 193.821 242.8 193.885 240.052 194.067 237.13 C 194.26 234.024 194.811 230.251 195.733 227.434 C 196.553 224.927 198.275 221.666 199.065 220.9 C 199.401 220.573 199.753 221.05 199.898 220.689 C 200.244 219.825 198.108 215.484 198.648 213.101 C 199.211 210.624 201.804 207.567 203.439 206.145 C 204.667 205.077 206.863 206.16 208.793 205.951 Z" style="stroke-width: 2px; stroke: rgba(0, 0, 0, 0); fill: rgb(168, 198, 53);"/>
  </g>
</svg>