<?xml version="1.0" encoding="utf-8"?>
<svg xmlns="http://www.w3.org/2000/svg" viewBox="113.2898 143.043 275.4201 213.9153" width="275.42px" height="213.915px" preserveAspectRatio="none"><g id="object-0"><path style="fill: rgb(181, 163, 136); stroke-width: 5.5px; stroke: rgba(0, 0, 0, 0);" d="M 250.143 143.043 L 204.983 168.605 L 159.984 194.167 L 159.894 221.991 L 159.802 249.815 L 159.907 277.868 L 159.997 305.692 L 204.996 331.254 L 250.712 356.675 L 295.166 331.29 L 340.165 305.728 L 340.255 277.904 L 340.36 249.851 L 340.268 222.027 L 340.178 194.203 L 295.179 168.641 L 250.143 143.043 Z"/><path style="fill: rgb(171, 154, 128); stroke: rgb(165, 148, 122); stroke-width: 5.5px;" d="M 250.123 179.892 L 220.543 196.635 L 191.068 213.378 L 191.009 231.604 L 190.947 249.83 L 191.017 268.205 L 191.077 286.429 L 220.552 303.173 L 250.496 319.824 L 279.613 303.199 L 309.088 286.453 L 309.147 268.229 L 309.216 249.853 L 309.156 231.628 L 309.097 213.402 L 279.622 196.659 L 250.123 179.892 Z"/><path style="fill: rgb(187, 169, 142); stroke: rgb(165, 148, 122); stroke-linejoin: round; stroke-linecap: round; stroke-width: 5.5px;" d="M 250.681 180.078 L 250.086 143.43 L 160.535 194.834 L 191.244 213.745 L 250.681 180.078 Z"/><path style="fill: rgb(171, 154, 128); stroke: rgb(165, 148, 122); stroke-linejoin: round; stroke-linecap: round; transform-box: fill-box; transform-origin: 50% 50%; stroke-width: 5.5px;" d="M 339.399 176.926 L 338.803 213.574 L 249.252 162.17 L 279.961 143.258 L 339.399 176.926 Z" transform="matrix(-1, 0, 0, -1, -0.00002, -0.000001)"/><path style="fill: rgb(187, 169, 142); stroke: rgb(165, 148, 122); stroke-linejoin: round; stroke-linecap: round; transform-origin: 294.948px 321.634px; stroke-width: 5.5px;" d="M 340.022 323.124 L 339.426 286.477 L 249.875 337.881 L 280.584 356.792 L 340.022 323.124 Z" transform="matrix(-1, 0, 0, -1, 0.000003, 0.000008)"/><path style="fill: rgb(171, 154, 128); stroke: rgb(165, 148, 122); stroke-linejoin: round; stroke-linecap: round; transform-origin: 205.59px 321.39px; stroke-width: 5.5px;" d="M 250.664 319.9 L 250.068 356.548 L 160.518 305.144 L 191.227 286.232 L 250.664 319.9 Z" transform="matrix(0.999958, -0.009136, 0.009136, 0.999958, 0, 0)"/><path style="fill: rgb(153, 137, 113); stroke: rgb(165, 148, 122); stroke-linejoin: round; stroke-linecap: round; transform-origin: 168.026px 246.478px; stroke-width: 5.5px;" d="M 214.325 245.663 L 216.303 281.948 L 118.953 228.031 L 150.248 210.236 L 214.325 245.663 Z" transform="matrix(0.482178, 0.876073, -0.876073, 0.482178, 0.000013, -0.000003)"/><path style="fill: rgb(153, 137, 113); stroke-opacity: 0; stroke: rgb(165, 148, 122); stroke-linejoin: round; stroke-linecap: round; transform-origin: 333.975px 246.467px; stroke-width: 5.5px;" d="M 380.275 247.283 L 382.252 210.998 L 284.903 264.915 L 316.197 282.71 L 380.275 247.283 Z" transform="matrix(-0.482178, 0.876073, -0.876073, -0.482178, -0.000011, 0.000015)"/><path style="fill: rgba(181, 163, 136, 0); stroke: rgb(69, 69, 69); stroke-width: 5.5px;" d="M 250.062 143.184 L 204.902 168.746 L 159.901 194.308 L 159.813 222.132 L 159.721 249.956 L 159.826 278.009 L 159.916 305.833 L 204.915 331.395 L 250.631 356.816 L 295.085 331.431 L 340.084 305.869 L 340.174 278.045 L 340.279 249.992 L 340.187 222.168 L 340.097 194.344 L 295.098 168.782 L 250.062 143.184 Z"/></g></svg>