<?xml version="1.0" encoding="utf-8"?>
<svg xmlns="http://www.w3.org/2000/svg" viewBox="0 0 500 500">
  <g transform="matrix(1.31706, 0, 0, 1.31706, -79.19278, -79.154274)" style="">
    <path style="stroke-linejoin: round; stroke-linecap: round; stroke-width: 5px; stroke: rgb(68, 68, 68); fill: rgb(168, 140, 116);" d="M 317.636 286.796 C 310.022 323.3 191.515 325.882 181.669 286.717 L 179.226 278.045 L 179.417 228.351 L 180.385 217.043 C 199.334 171.641 302.743 170.72 318.549 216.9 L 319.563 228.428 L 319.755 278.122 L 317.636 286.796 Z"/>
    <path stroke="rgb(255,0,0)" d="M 205.82 192.264 C 210.101 190.269 217.11 188.84 212.486 191.192 C 208.073 193.436 202.235 207.097 198.955 209.512 C 196.135 211.589 192.331 220.377 192.38 223.166 C 192.434 226.228 191.409 230.229 191.094 234.127 C 190.747 238.434 190.71 242.41 190.596 248.518 C 190.429 257.465 191.906 269.296 194.142 274.588 C 194.871 276.313 203.813 279.603 205.829 280.703 C 208.886 282.371 215.143 281.528 218.646 283.062 C 221.068 284.123 228.107 283.901 230.948 284.65 C 235.768 285.921 239.785 286.093 246.681 286.523 C 252.366 286.877 257.527 285.847 260.724 286.646 C 262.696 287.139 263.257 311.141 264.04 312.252 C 264.805 313.338 269.343 313.337 269.129 314.623 C 268.916 315.902 256.778 315.084 255.907 315.873 C 255.168 316.543 254.542 316.795 253.38 317.022 C 251.686 317.353 247.967 317.16 246.258 317.022 C 245.121 316.93 244.551 316.597 243.73 316.563 C 242.944 316.53 241.884 316.855 241.433 316.792 C 241.185 316.758 241.238 316.601 240.973 316.563 C 240.437 316.484 239.687 316.91 237.986 316.792 C 234.202 316.53 221.9 314.457 216.159 313.116 C 211.847 312.109 209.622 311.857 205.82 309.9 C 200.932 307.382 192.965 301.242 189.393 297.952 C 187.025 295.772 185.938 294.498 184.798 292.323 C 183.604 290.047 183.194 288.451 182.5 284.511 C 181.283 277.597 179.947 260.481 179.513 251.426 C 179.178 244.426 179.176 239.109 179.513 233.965 C 179.802 229.563 180.436 225.65 181.122 222.247 C 181.703 219.357 181.826 217.546 183.189 214.665 C 185.011 210.816 189.555 204.285 192.265 201.225 C 194.185 199.056 195.478 198.263 197.549 196.859 C 199.905 195.262 202.436 193.841 205.82 192.264 Z" style="stroke: rgb(129, 151, 57); stroke-width: 0px; fill: rgb(141, 117, 97);"/>
    <path stroke="rgb(255,0,0)" d="M 257.348 314.857 C 261.629 316.852 268.638 318.281 264.014 315.929 C 259.601 313.685 253.763 300.024 250.483 297.609 C 247.663 295.532 243.859 286.744 243.908 283.955 C 243.962 280.893 242.937 276.892 242.622 272.994 C 242.275 268.687 242.238 264.711 242.124 258.603 C 241.957 249.656 243.434 237.825 245.67 232.533 C 246.399 230.808 255.341 227.518 257.357 226.418 C 260.414 224.75 266.671 225.593 270.174 224.059 C 272.596 222.998 279.635 223.22 282.476 222.471 C 287.296 221.2 291.313 221.028 298.209 220.598 C 303.894 220.244 309.055 221.274 312.252 220.475 C 314.224 219.982 314.785 195.98 315.568 194.869 C 316.333 193.783 320.871 193.784 320.657 192.498 C 320.444 191.219 308.306 192.037 307.435 191.248 C 306.696 190.578 306.07 190.326 304.908 190.099 C 303.214 189.768 299.495 189.961 297.786 190.099 C 296.649 190.191 296.079 190.524 295.258 190.558 C 294.472 190.591 293.412 190.266 292.961 190.329 C 292.713 190.363 292.766 190.52 292.501 190.558 C 291.965 190.637 291.215 190.211 289.514 190.329 C 285.73 190.591 273.428 192.664 267.687 194.005 C 263.375 195.012 261.15 195.264 257.348 197.221 C 252.46 199.739 244.493 205.879 240.921 209.169 C 238.553 211.349 237.466 212.623 236.326 214.798 C 235.132 217.074 234.722 218.67 234.028 222.61 C 232.811 229.524 231.475 246.64 231.041 255.695 C 230.706 262.695 230.704 268.012 231.041 273.156 C 231.33 277.558 231.964 281.471 232.65 284.874 C 233.231 287.764 233.354 289.575 234.717 292.456 C 236.539 296.305 241.083 302.836 243.793 305.896 C 245.713 308.065 247.006 308.858 249.077 310.262 C 251.433 311.859 253.964 313.28 257.348 314.857 Z" style="stroke: rgb(129, 151, 57); stroke-width: 0px; fill: rgb(141, 117, 97); transform-box: fill-box; transform-origin: 50% 50%;" transform="matrix(-1, 0, 0, -1, -0.000024, 0.000019)"/>
    <path style="stroke-linejoin: round; stroke-linecap: round; stroke-width: 5px; stroke: rgb(68, 68, 68); fill: rgba(168, 140, 116, 0);" d="M 318.146 287.912 C 310.532 324.416 192.025 326.998 182.179 287.833 L 179.736 279.161 L 179.927 229.467 L 180.895 218.159 C 199.844 172.757 303.253 171.836 319.059 218.016 L 320.073 229.544 L 320.265 279.238 L 318.146 287.912 Z"/>
    <path style="stroke: rgb(0, 0, 0); fill: rgb(58, 49, 44); stroke-width: 0px;" d="M 229.349 268.005 C 225.7 264.964 214.361 266.654 211.244 267.98 C 197.638 273.77 207.534 289.806 214.077 291.435 L 217.938 293.099 L 222.044 294.717 L 226.791 295.936 L 232.361 296.074 L 234.747 295.369 L 235.965 292.805 L 235.95 288.274 L 235.314 280.382 L 233.988 274.111 L 232.393 271.018 L 229.349 268.005 Z"/>
    <ellipse style="stroke-width: 0px; stroke: rgb(0, 0, 0); fill: rgb(239, 252, 233);" cx="224.693" cy="282.499" rx="8.347" ry="8.347"/>
    <path style="stroke: rgb(0, 0, 0); fill: rgb(58, 49, 44); stroke-width: 0px; transform-box: fill-box; transform-origin: 50% 50%;" d="M 288.952 295.319 C 285.303 298.36 273.964 296.67 270.847 295.344 C 257.241 289.554 267.137 273.518 273.68 271.889 L 277.541 270.225 L 281.647 268.607 L 286.394 267.388 L 291.964 267.25 L 294.35 267.955 L 295.568 270.519 L 295.553 275.05 L 294.917 282.942 L 293.591 289.213 L 291.996 292.306 L 288.952 295.319 Z" transform="matrix(-1, 0, 0, -1, 0.00002, 0.000019)"/>
    <ellipse style="stroke-width: 0px; stroke: rgb(0, 0, 0); fill: rgb(239, 252, 233);" cx="-275.3" cy="283.45" rx="8.347" ry="8.347" transform="matrix(-1, 0, 0, 1, 0, 0)"/>
  </g>
</svg>